{"title":"Point Break 2015 HDCAM XVID AC3 HQ Hive-CM8","uid":13485455,"size":1480431838,"categoryP":"video","categoryS":"movies","magnet":"?xt=urn:btih:4318c0bf32095af7913fe897b7e29998b9047063&amp;dn=Point+Break+2015+HDCAM+XVID+AC3+HQ+Hive-CM8&amp;tr=udp%3A%2F%2Ftracker.leechers-paradise.org%3A6969&amp;tr=udp%3A%2F%2Fzer0day.ch%3A1337&amp;tr=udp%3A%2F%2Fopen.demonii.com%3A1337&amp;tr=udp%3A%2F%2Ftracker.coppersurfer.tk%3A6969&amp;tr=udp%3A%2F%2Fexodus.desync.com%3A6969","seeders":1,"leechers":4,"uploader":"makintos13","files":4,"time":1455073452,"description":"screens:\r\n \nhttp://imgmak.com/KV1 \nhttp://imgmak.com/KVU \nhttp://imgmak.com/KV3 \nhttp://imgmak.com/KVG \nhttp://imgmak.com/KVH\r\n\r\nThx Hive\r\n\r\nCM8 Doing It Right The First Time\r\n\r\nSources:\r\n\r\nVideo: 720p Italian Race-Crew\r\nAudio: Mic Audio from UnKnOwN\r\nthx guys\r\n\r\nEncode:\r\n\r\nVideo was nice, was already bright enough, fixed perspective and added slightly sharpness\r\nfor security reasons had to remove 30 secs the rest is all here\r\nAudio is a nice mic, you can hear whats been said, no line on this sorry, perhaps on the next one\r\nlipsynced to my video\r\n\r\nwill do me just fine\r\nenjoy\r\n\r\nVideo: 720x320 @bitrate 1700 2pass\r\nAudio: English Mic Stereo\r\nSamples: yes included \nhttp://www.imdb.com/title/tt2058673/\r\n\r\nGeneral\r\nComplete name: Point.Break.2015.HDCAM.XVID.AC3.HQ.Hive-CM8.avi\r\nFormat: AVI\r\nFormat/Info: Audio Video Interleave\r\nFile size: 1.35 GiB\r\nDuration: 1h 38mn\r\nOverall bit rate: 1 963 Kbps\r\nWriting application: Nandub v1.0rc2\r\nWriting library: Nandub build 1853/release\r\n\r\nVideo\r\nID: 0\r\nFormat: MPEG-4 Visual\r\nFormat profile: Advanced   \r\nFormat settings, BVOP: 2\r\nFormat settings, QPel: Yes\r\nFormat settings, GMC: No warppoints\r\nFormat settings, Matrix: Default (H.263)\r\nMuxing mode: Packed bitstream\r\nCodec ID: XVID\r\nCodec ID/Hint: XviD\r\nDuration: 1h 38mn\r\nBit rate: 1 697 Kbps\r\nWidth: 720 pixels\r\nHeight: 320 pixels\r\nDisplay aspect ratio: 2.25:1\r\nFrame rate: 25.049 fps\r\nOriginal frame rate: 25.052 fps\r\nColor space: YUV\r\nChroma subsampling: 4:2:0\r\nBit depth: 8 bits\r\nScan type: Progressive\r\nCompression mode: Lossy\r\nBits/(Pixel*Frame): 0.294\r\nStream size: 1.17 GiB (86%)\r\nWriting library: XviD 1.2.1 (UTC 2008-12-04)\r\n\r\nAudio\r\nID: 1\r\nFormat: AC-3\r\nFormat/Info: Audio Coding 3\r\nMode extension: CM (complete main)\r\nFormat settings, Endianness: Big\r\nCodec ID: 2000\r\nDuration: 1h 38mn\r\nBit rate mode: Constant\r\nBit rate: 256 Kbps\r\nChannel(s): 2 channels\r\nChannel positions: Front: L R\r\nSampling rate: 48.0 KHz\r\nBit depth: 16 bits\r\nCompression mode: Lossy\r\nStream size: 180 MiB (13%)\r\nAlignment: Split accross interleaves\r\nInterleave, duration: 40 ms (1.00 video frame)\r\nInterleave, preload duration: 500 ms","torrent":{"xt":"urn:btih:4318c0bf32095af7913fe897b7e29998b9047063","amp;dn":"Point+Break+2015+HDCAM+XVID+AC3+HQ+Hive-CM8","amp;tr":["udp%3A%2F%2Ftracker.leechers-paradise.org%3A6969","udp%3A%2F%2Fzer0day.ch%3A1337","udp%3A%2F%2Fopen.demonii.com%3A1337","udp%3A%2F%2Ftracker.coppersurfer.tk%3A6969","udp%3A%2F%2Fexodus.desync.com%3A6969"],"infoHash":"4318c0bf32095af7913fe897b7e29998b9047063","infoHashBuffer":{"type":"Buffer","data":[67,24,192,191,50,9,90,247,145,63,232,151,183,226,153,152,185,4,112,99]},"announce":[],"urlList":[]}}